{"title":"Housefull 3 (2016) 720p Untouched WEBHD AVC AAC MSub [DDR]","uid":15770725,"size":3213808310,"categoryP":"video","categoryS":"hd___movies","magnet":"?xt=urn:btih:6a4be8142d21c4314742e5088206d7197ee989c5&amp;dn=Housefull+3+%282016%29+720p+Untouched+WEBHD+AVC+AAC+MSub+%5BDDR%5D&amp;tr=udp%3A%2F%2Ftracker.leechers-paradise.org%3A6969&amp;tr=udp%3A%2F%2Fzer0day.ch%3A1337&amp;tr=udp%3A%2F%2Fopen.demonii.com%3A1337&amp;tr=udp%3A%2F%2Ftracker.coppersurfer.tk%3A6969&amp;tr=udp%3A%2F%2Fexodus.desync.com%3A6969","seeders":13,"leechers":7,"uploader":"SaM","files":3,"time":1473201571,"description":"\n** Housefull -3 **\r\n\r\n** 2016**\r\n\r\n** 720p / WebHD / x264\r\n\r\nHindi Audio 5.1 **\r\n\r\n** English &amp; Arabic Subtitle(s) **\r\n\r\n\r\n\r\n[ SCREENS ]\r\n \nhttp://extraimago.com/image/wRby \nhttp://extraimago.com/image/wRbq \nhttp://extraimago.com/image/wRbS \nhttp://extraimago.com/image/wRbO \nhttp://extraimago.com/image/wRb1 \nhttp://extraimago.com/image/wRbc \nhttp://extraimago.com/image/wRb7 \nhttp://extraimago.com/image/wRbs \nhttp://extraimago.com/image/wRbn \nhttp://extraimago.com/image/wRbj \nhttp://extraimago.com/image/wRbT\r\n\r\n[ Info ]\r\n\r\nSource : WEB @ DDR\r\nGeneral\r\normat : Matroska\r\nFormat version : Version 4 / Version 2\r\nFile size : 2.99 GiB\r\nDuration : 2 h 14 min\r\nOverall bit rate : 3 191 kb/s\r\n\r\nVideo\r\nFormat : AVC\r\nFormat/Info : Advanced Video Codec\r\nFormat profile :   \r\nFormat settings, CABAC : Yes\r\nFormat settings, ReFrames : 4 frames\r\nCodec ID : V_MPEG4/ISO/AVC\r\nDuration : 2 h 14 min\r\nBit rate : 3 014 kb/s\r\nWidth : 1 280 pixels\r\nHeight : 720 pixels\r\nDisplay aspect ratio : 16:9\r\nFrame rate mode : Constant\r\nFrame rate : 24.000 FPS\r\ncolor space : YUV\r\nChroma subsampling : 4:2:0\r\nBit depth : 8 bits\r\nScan type : Progressive\r\nBits/(Pixel*Frame) : 0.136\r\nStream size : 2.81 GiB (94%)\r\n\r\nAudio\r\nFormat : AAC\r\nFormat/Info : Advanced Audio Codec\r\nFormat profile : LC\r\nCodec ID : A_AAC\r\nDuration : 2 h 14 min\r\nBit rate : 192 kb/s\r\nChannel(s) : 2 channels\r\nChannel positions : Front: L R\r\nSampling rate : 48.0 kHz\r\nFrame rate : 46.875 FPS (1024 spf)\r\nCompression mode : Lossy\r\nDelay relative to video : -43 ms\r\nStream size : 186 MiB (6%)\r\nDefault : Yes\r\nForced : No\r\n\r\nChapters : None On Source\r\n\r\n[ A DDR Exclusive Release !!! ]","torrent":{"xt":"urn:btih:6a4be8142d21c4314742e5088206d7197ee989c5","amp;dn":"Housefull+3+%282016%29+720p+Untouched+WEBHD+AVC+AAC+MSub+%5BDDR%5D","amp;tr":["udp%3A%2F%2Ftracker.leechers-paradise.org%3A6969","udp%3A%2F%2Fzer0day.ch%3A1337","udp%3A%2F%2Fopen.demonii.com%3A1337","udp%3A%2F%2Ftracker.coppersurfer.tk%3A6969","udp%3A%2F%2Fexodus.desync.com%3A6969"],"infoHash":"6a4be8142d21c4314742e5088206d7197ee989c5","infoHashBuffer":{"type":"Buffer","data":[106,75,232,20,45,33,196,49,71,66,229,8,130,6,215,25,126,233,137,197]},"announce":[],"urlList":[]}}